<svg id="Capa_1" data-name="Capa 1" xmlns="http://www.w3.org/2000/svg" viewBox="0 0 726.87 476.76"><defs><style>.cls-1{fill:#e6007e;}.cls-2{fill:#fff;}.cls-3{fill:#706f6f;}</style></defs><title>G</title><path class="cls-1" d="M700,218a104.92,104.92,0,0,0,19.34-88.46c-32.14-8-67.41,1.07-92.48,27.15-24.14,25.13-33,60.07-26.64,92.43-.39.5-.8,1-1.17,1.48,15.76,21.17,44.09,35.28,76.41,35.24s60.64-14.21,76.34-35.43C740.2,234.85,721.78,223.12,700,218Z" transform="translate(-35.8 -65.17)"/><path class="cls-2" d="M600.57,65.17c-24.33,16.38-41.77,43.81-46.68,75.9a95.24,95.24,0,0,0-72.66-11,104.94,104.94,0,0,0,19.08,87.8c-22.09,5.08-40.75,16.95-52.43,32.72,15.75,21.18,44.08,35.28,76.41,35.25,30.79,0,57.91-12.91,74-32.47.4-.09.81-.16,1.21-.26.44.31.86.64,1.31.94,28.89-19.48,48.16-54.51,48.12-94.48S629.53,84.58,600.57,65.17Z" transform="translate(-35.8 -65.17)"/><path class="cls-2" d="M189.78,289.67V465.08H174.47V434.47a96.13,96.13,0,0,1-16.53,18.37q-21.42,18.66-48.67,18.67-33.06,0-54.19-27.55Q35.8,418.55,35.8,384.26a109.91,109.91,0,0,1,1.53-18.06Q43.45,328.25,70.08,305q24.81-22.05,59.7-19.59Q154,285.69,189.78,289.67Zm-15.31,92.15V303.14q-39.48-3.06-48.06-3.06-26.62-1.83-48.06,17.14-12.55,11-19.9,30.92a104.44,104.44,0,0,0-6.73,36.74q0,23.26,9.79,40.1Q79.89,455.91,108,455.9q22.35,0,42.25-17.14Q174.17,417.63,174.47,381.82Z" transform="translate(-35.8 -65.17)"/><path class="cls-2" d="M306.41,468.14a92.29,92.29,0,0,1-16.84-1.53q-26.32-5.19-42.55-18.06V432a135.74,135.74,0,0,0,48.37,20.51,74.1,74.1,0,0,0,14.69,1.53q39.18,0,47.76-40.1a37.38,37.38,0,0,0,.61-6.74q0-15.6-16.84-32.44Q333,366.2,305.8,346.3q-34.29-25.1-38.88-29.38-18.68-18.06-18.68-39.19a54.66,54.66,0,0,1,1.23-11.32Q255,239.77,274,226.92q15.3-10.11,36.43-10.11a97.11,97.11,0,0,1,18.37,1.84q18,3.67,34.59,15.92v15.92a78.52,78.52,0,0,0-37-18.37,76.65,76.65,0,0,0-15.92-1.84q-14.7,0-25.1,7.05-15.62,10.39-19.9,32.14a44.54,44.54,0,0,0-1.23,9.49q0,10.41,8.88,20.51t34.59,29.08q40.71,30.3,53,43.47,14.09,15.32,14.08,32.14a92,92,0,0,1-1.53,15.31q-4.59,25.71-22.65,36.74Q331.5,468.15,306.41,468.14Z" transform="translate(-35.8 -65.17)"/><path class="cls-2" d="M564.17,369.57v95.82H548.25V369.57q0-29.38-9.19-44.69Q531.72,312.64,523.3,307t-24.95-8.42c-2.25-.2-4.59-.31-7-.31q-22.05,0-41.94,17.45-24.5,21.12-24.49,52.66v97H409.57V183.45h15.31V319.67A89.59,89.59,0,0,1,453,293q18.06-10.41,37.35-10.41a65.3,65.3,0,0,1,10.71.92q20.21,3.06,31.69,10.26t20.05,22.5Q563.87,334.67,564.17,369.57Z" transform="translate(-35.8 -65.17)"/><path class="cls-1" d="M752.74,289.67V465.08H737.43V434.47a96.46,96.46,0,0,1-16.53,18.37q-21.43,18.66-48.67,18.67-33.08,0-54.19-27.55-19.29-25.41-19.29-59.7a108.86,108.86,0,0,1,1.54-18.06Q606.41,328.25,633,305q24.8-22.05,59.7-19.59Q716.92,285.69,752.74,289.67Zm-15.31,92.15V303.14q-39.49-3.06-48.06-3.06-26.64-1.83-48.06,17.14-12.55,11-19.9,30.92a104.45,104.45,0,0,0-6.74,36.74q0,23.26,9.8,40.1Q642.83,455.91,671,455.9q22.35,0,42.25-17.14Q737.13,417.63,737.43,381.82Z" transform="translate(-35.8 -65.17)"/><path class="cls-3" d="M497.59,151.15c70.49,11.38,101.09,43.29,107,70s-10.37,40.29-10.37,40.29c14.48-85.44-96.65-110.31-96.65-110.31" transform="translate(-35.8 -65.17)"/><path class="cls-3" d="M613.2,209.78c17.84-39.25,87.72-63.32,87.72-63.32C636.49,150.64,605.7,200,605.7,200l6.95,11.13Z" transform="translate(-35.8 -65.17)"/><path class="cls-3" d="M613.2,162a13.4,13.4,0,1,1-13.41-13.39A13.39,13.39,0,0,1,613.2,162" transform="translate(-35.8 -65.17)"/><path class="cls-2" d="M49.1,500.11H71.24v4.49H53.34v13.48H70v4.49H53.34v18.32H49.1Z" transform="translate(-35.8 -65.17)"/><path class="cls-2" d="M113,525.34a26.54,26.54,0,0,1-.73,6.34A15.67,15.67,0,0,1,110,537a11.53,11.53,0,0,1-4.16,3.63,15.17,15.17,0,0,1-12.51,0A11.36,11.36,0,0,1,89.13,537a15.68,15.68,0,0,1-2.33-5.27,27.07,27.07,0,0,1-.73-6.34V500.11h4.24v24.54a24.92,24.92,0,0,0,.45,4.78,12.85,12.85,0,0,0,1.52,4.09,8.1,8.1,0,0,0,2.82,2.85,9.75,9.75,0,0,0,8.88,0,8.13,8.13,0,0,0,2.83-2.85,12.84,12.84,0,0,0,1.51-4.09,24.92,24.92,0,0,0,.45-4.78V500.11H113Z" transform="translate(-35.8 -65.17)"/><path class="cls-2" d="M130.82,500.11h22.44v4.49H135.05v12.79h17v4.49h-17V536.4h19.12v4.49H130.82Z" transform="translate(-35.8 -65.17)"/><path class="cls-2" d="M169.81,500.11h9.13a38.18,38.18,0,0,1,5.12.34,12.5,12.5,0,0,1,4.57,1.5,8.77,8.77,0,0,1,3.27,3.37,12.19,12.19,0,0,1,1.27,6,10.13,10.13,0,0,1-8.93,10.77l10.14,18.78h-5.2l-9.68-18.32h-5.45v18.32h-4.24Zm4.24,18h3.78c1.18,0,2.4,0,3.66-.11a11.34,11.34,0,0,0,3.48-.75,6.15,6.15,0,0,0,2.62-2,6.3,6.3,0,0,0,1-3.89,7.08,7.08,0,0,0-.76-3.51,5.45,5.45,0,0,0-2-2.05,7.89,7.89,0,0,0-2.78-.95,21.45,21.45,0,0,0-3.1-.23h-5.95Z" transform="translate(-35.8 -65.17)"/><path class="cls-2" d="M232.76,504.6H221v36.29h-4.24V504.6h-11.8v-4.49h27.84Z" transform="translate(-35.8 -65.17)"/><path class="cls-2" d="M246.84,500.11h22.44v4.49H251.07v12.79h17v4.49h-17V536.4h19.12v4.49H246.84Z" transform="translate(-35.8 -65.17)"/><path class="cls-2" d="M332,500.11h10.59a20.14,20.14,0,0,1,4.72.54,11,11,0,0,1,4,1.85,9.1,9.1,0,0,1,2.78,3.45,14.32,14.32,0,0,1-.08,10.86,9.45,9.45,0,0,1-2.85,3.46,11.1,11.1,0,0,1-3.81,1.79,16.44,16.44,0,0,1-3.93.51h-7.16v18.32H332Zm4.24,18h7.16a7.89,7.89,0,0,0,5.17-1.64,7.53,7.53,0,0,0,0-10.2,7.89,7.89,0,0,0-5.17-1.64h-7.16Z" transform="translate(-35.8 -65.17)"/><path class="cls-2" d="M371,500.11h4.24V536.4h16.34v4.49H371Z" transform="translate(-35.8 -65.17)"/><path class="cls-2" d="M405.33,500.11h22.45v4.49H409.57v12.79h17v4.49h-17V536.4h19.12v4.49H405.33Z" transform="translate(-35.8 -65.17)"/><path class="cls-2" d="M444.32,500.11h5.35L470.35,534h.1V500.11h4.24v40.78h-5.35L448.66,507h-.1v33.87h-4.24Z" transform="translate(-35.8 -65.17)"/><path class="cls-2" d="M504.25,500.11h4l15.19,40.78h-4.94l-3.64-10H497l-3.69,10h-4.79Zm1.92,6.22h-.1l-7.42,20.05h14.58Z" transform="translate(-35.8 -65.17)"/><path class="cls-2" d="M583.45,500.11h10.89a18,18,0,0,1,4.34.52,11,11,0,0,1,3.79,1.69,9,9,0,0,1,2.69,3.09,11.18,11.18,0,0,1-.65,10.62,9.08,9.08,0,0,1-4.57,3.32v.11a8.21,8.21,0,0,1,3.21,1,9.05,9.05,0,0,1,2.57,2.16,10,10,0,0,1,1.69,3.08,11.66,11.66,0,0,1,.61,3.78,11.34,11.34,0,0,1-1.24,5.59,9.93,9.93,0,0,1-3.23,3.48,13.14,13.14,0,0,1-4.49,1.82,24.74,24.74,0,0,1-5,.51H583.45Zm4.24,17.28h5.85a19,19,0,0,0,3-.23,6.94,6.94,0,0,0,2.6-.95,5.27,5.27,0,0,0,1.86-2,7.13,7.13,0,0,0,.71-3.42,6.32,6.32,0,0,0-.66-3.09,5.05,5.05,0,0,0-1.74-1.87,6.81,6.81,0,0,0-2.47-.95,15.44,15.44,0,0,0-2.8-.26h-6.3Zm0,19h7.16A13,13,0,0,0,598,536a8.7,8.7,0,0,0,2.78-1.21,6.46,6.46,0,0,0,2-2.19,6.76,6.76,0,0,0,.75-3.32,7.8,7.8,0,0,0-.73-3.57,6.29,6.29,0,0,0-1.91-2.3,7.2,7.2,0,0,0-2.73-1.21,14.35,14.35,0,0,0-3.15-.35h-7.26Z" transform="translate(-35.8 -65.17)"/><path class="cls-2" d="M624.31,500.11h22.44v4.49H628.54v12.79h17v4.49h-17V536.4h19.12v4.49H624.31Z" transform="translate(-35.8 -65.17)"/><path class="cls-2" d="M663.3,500.11h4.24V536.4h16.34v4.49H663.3Z" transform="translate(-35.8 -65.17)"/><path class="cls-2" d="M697.6,500.11h4.24V536.4h16.34v4.49H697.6Z" transform="translate(-35.8 -65.17)"/><path class="cls-2" d="M743.51,500.11h4l15.18,40.78h-4.94l-3.63-10H736.24l-3.68,10h-4.79Zm1.91,6.22h-.1l-7.41,20.05h14.57Z" transform="translate(-35.8 -65.17)"/><rect class="cls-2" x="168.37" y="222.67" width="15.31" height="177.55"/><path class="cls-2" d="M212.14,237.91a12.73,12.73,0,1,0,12.75,12.72A12.73,12.73,0,0,0,212.14,237.91Z" transform="translate(-35.8 -65.17)"/></svg>