<svg id="Layer_1" data-name="Layer 1" xmlns="http://www.w3.org/2000/svg" xmlns:xlink="http://www.w3.org/1999/xlink" viewBox="0 0 622.95 311.32"><defs><style>.cls-1,.cls-3{fill:#3f6090;}.cls-2{fill:#727994;}.cls-3{stroke:#3f6090;stroke-miterlimit:10;stroke-width:2.9px;}.cls-4{fill:url(#linear-gradient);}.cls-5{fill:url(#linear-gradient-2);}.cls-6{fill:url(#linear-gradient-3);}.cls-7{fill:url(#linear-gradient-4);}</style><linearGradient id="linear-gradient" x1="307.99" y1="115.8" x2="455.33" y2="115.8" gradientUnits="userSpaceOnUse"><stop offset="0" stop-color="#4d9fda"/><stop offset="0.66" stop-color="#4d9cd6"/><stop offset="1" stop-color="#3f6090"/></linearGradient><linearGradient id="linear-gradient-2" x1="297.87" y1="117.85" x2="406.05" y2="117.85" xlink:href="#linear-gradient"/><linearGradient id="linear-gradient-3" x1="283.24" y1="130.63" x2="366.42" y2="130.63" xlink:href="#linear-gradient"/><linearGradient id="linear-gradient-4" x1="294.3" y1="146.74" x2="345.2" y2="146.74" xlink:href="#linear-gradient"/></defs><title>Eclipse Logo®</title><path class="cls-1" d="M581.76,365.72a9,9,0,0,1-2.64,2.95,5.68,5.68,0,0,1-3.24,1,7.72,7.72,0,0,1-5.32-2.35,13.83,13.83,0,0,1-3.65-6.51,31.66,31.66,0,0,1-1.16-8.61q0-8.25,3.41-13.21a10.39,10.39,0,0,1,8.91-5,11.73,11.73,0,0,1,6.36,2.12v4.14c-2.26-2.13-4.41-3.19-6.43-3.19q-4,0-6.43,4.14t-2.41,11.22a22.55,22.55,0,0,0,2,9.95q2,4.14,5.15,4.14a4.66,4.66,0,0,0,3.83-2.22,9.05,9.05,0,0,0,1.61-5.44v-4.12h-6.34v-2.92h9.7v17.27H583Z" transform="translate(-84.53 -58.34)"/><path class="cls-1" d="M590.22,334.59h8.32a11.66,11.66,0,0,1,7.23,2.07q2.75,2.05,2.74,6.29a9.15,9.15,0,0,1-1.72,5.54,10.44,10.44,0,0,1-5.36,3.52,6.49,6.49,0,0,1,3.7,2.22,11.26,11.26,0,0,1,1.82,4.61l2,10.27h-3.59L604,360.8a11.48,11.48,0,0,0-2.23-5.72,5.78,5.78,0,0,0-4.54-1.76h-3.74v15.79h-3.29Zm3.29,3v12.92H597a8.75,8.75,0,0,0,5.92-1.95,6.57,6.57,0,0,0,2.25-5.25,5.45,5.45,0,0,0-1.61-4.3,7.09,7.09,0,0,0-4.83-1.42Z" transform="translate(-84.53 -58.34)"/><path class="cls-1" d="M612.79,334.59h3.37v24.85a8.19,8.19,0,0,0,1.57,5.29,5.29,5.29,0,0,0,4.39,2,5.43,5.43,0,0,0,4.32-1.88,8,8,0,0,0,1.62-5.37V334.59h3.36v24.85a10.55,10.55,0,0,1-2.56,7.45,8.85,8.85,0,0,1-6.81,2.77,8.36,8.36,0,0,1-6.8-3,12.14,12.14,0,0,1-2.46-8Z" transform="translate(-84.53 -58.34)"/><path class="cls-1" d="M637.07,334.59h9.54a10.44,10.44,0,0,1,7.08,2.24c1.72,1.49,2.58,3.71,2.58,6.64a9.34,9.34,0,0,1-2.93,7.33,11.15,11.15,0,0,1-7.74,2.62h-5.17v15.69h-3.36Zm3.36,3V350.5h5.11a7.58,7.58,0,0,0,5.25-1.79,6.4,6.4,0,0,0,2-5,6.09,6.09,0,0,0-1.64-4.52,6.25,6.25,0,0,0-4.58-1.62Z" transform="translate(-84.53 -58.34)"/><path class="cls-1" d="M670.7,334q5,0,8.09,4.83t3.1,13.56q0,7.84-3.2,12.55t-8.11,4.7a9.5,9.5,0,0,1-8.17-4.64q-3.15-4.65-3.14-12.86,0-8.37,3-13.25A9.43,9.43,0,0,1,670.7,334Zm.15,3.07q-4.15,0-6.13,4.22a26.39,26.39,0,0,0-2,11.05q0,6.45,2,10.31t5.69,3.84q3.69,0,5.77-4t2.08-10.76q0-7.4-2.19-11.05T670.85,337.09Z" transform="translate(-84.53 -58.34)"/><path class="cls-1" d="M707.47,235a11.63,11.63,0,0,1-3.61,8.87,11.82,11.82,0,0,1-8.38,3.4,12,12,0,0,1,0-23.92,11.75,11.75,0,0,1,6.28,1.78,11.42,11.42,0,0,1,4.29,4.56A11.65,11.65,0,0,1,707.47,235Zm-1.46.56a10.2,10.2,0,0,0-3.17-7.8,10.39,10.39,0,0,0-7.36-3,10.52,10.52,0,0,0,0,21,9.89,9.89,0,0,0,7.53-3.19A10.09,10.09,0,0,0,706,235.57Zm-15.39-6.45h5.24A5.23,5.23,0,0,1,699,230a2.86,2.86,0,0,1,1.19,2.5,3.61,3.61,0,0,1-.81,2.27,4.24,4.24,0,0,1-2.92,1.3,4.54,4.54,0,0,1,2,1.37,27.83,27.83,0,0,1,2.16,4.33H698.7a17.65,17.65,0,0,0-2.47-4.46,4.47,4.47,0,0,0-3.31-1h-.7v5.46h-1.6Zm1.6,5.83h2.07c1.68,0,2.76-.21,3.26-.63a2.22,2.22,0,0,0,.74-1.78,1.74,1.74,0,0,0-.82-1.66,6.48,6.48,0,0,0-2.93-.47h-2.32Z" transform="translate(-84.53 -58.34)"/><path class="cls-2" d="M338.36,202.57h12.42V214H338.36Z" transform="translate(-84.53 -58.34)"/><path class="cls-3" d="M288.63,279a41.94,41.94,0,0,1-80.36-2.6c-5.62-21.24,3.94-48.45,44.21-51.59l-.75-.73a5.62,5.62,0,0,0-1.95-.76c-41.07.09-57.37,34.55-50.79,59.41a46.51,46.51,0,0,0,90.59-2.8Z" transform="translate(-84.53 -58.34)"/><path class="cls-1" d="M302.45,202.57h12.42V316.39H302.45Z" transform="translate(-84.53 -58.34)"/><path class="cls-1" d="M338.36,202.57h12.42V214H338.36Zm0,26.56h12.42v87.26H338.36Z" transform="translate(-84.53 -58.34)"/><path class="cls-1" d="M556.48,255c-3.19-14.1-11.91-18.13-30-18.13-13.1,0-25.17,2.86-25.17,14.93,0,9.07,5.86,10.91,32.38,14.44,26.68,3.52,37.76,8.22,37.76,25.17,0,17.28-14.1,27.69-41.45,27.69-27.7,0-44.14-9.06-44.14-30.05h11.41c2.18,14.61,10.42,19.64,32.73,19.64,17.29,0,29-3.52,29-16.61,0-8.73-6.19-12.59-33.38-15.28s-36.74-9-36.74-24.49c0-15.1,12.25-25.84,37.59-25.84,28.36,0,39.93,10.24,41.45,28.53Z" transform="translate(-84.53 -58.34)"/><path class="cls-1" d="M634.33,308.67c-17.66,0-29.44-9.4-33.49-22.4h-.07c-.07-.24-.11-.46-.17-.71a34.81,34.81,0,0,1-1.2-6.69,51.58,51.58,0,0,1-.08-12.48h-.06c.06-.46.17-.88.23-1.33.13-.74.25-1.4.37-2,.06-.25.1-.51.17-.76a24.88,24.88,0,0,1,.78-2.76c5.26-16.23,20.26-22.68,34.36-22.68,16.61,0,32.39,8.06,35.9,29.54H615v9.39h68.54c0-39.6-26.68-49.33-49.16-49.33-32.56,0-47.49,22-47.49,46.31,0,21.3,11.75,46.32,47.49,46.32,28.86,0,41.95-15.11,47-30.55H668.9C664.53,301.79,655.13,308.67,634.33,308.67Z" transform="translate(-84.53 -58.34)"/><path class="cls-1" d="M132,308.67c-17.66,0-29.43-9.4-33.49-22.4h-.07c-.06-.24-.1-.46-.15-.71a34.83,34.83,0,0,1-1.23-6.69A52,52,0,0,1,97,266.39h0c0-.46.16-.88.23-1.33.11-.74.25-1.4.36-2,.06-.25.12-.51.17-.76a24.16,24.16,0,0,1,.79-2.76c5.25-16.23,20.25-22.68,34.35-22.68,16.61,0,32.39,8.06,35.92,29.54H112.64v9.39h68.54c0-39.6-26.68-49.33-49.17-49.33-32.55,0-47.48,22-47.48,46.31,0,21.3,11.75,46.32,47.48,46.32,28.86,0,42-15.11,47-30.55H166.58C162.21,301.79,152.82,308.67,132,308.67Z" transform="translate(-84.53 -58.34)"/><path class="cls-1" d="M422.93,226.45c-24.16,0-32.23,12.75-35.58,20.14H387V229.13H374.59V343.3H387V321.75H387v-41.9s-2.35-41.94,36-43c25.32-.7,35.06,18.45,35.06,35.91,0,22.15-15.43,35.91-35.06,35.91-9.69,0-17.31-2.64-23-6.89v10.59a42.37,42.37,0,0,0,23,6.71c32.55,0,47.48-22,47.48-46.32C470.41,251.46,458.67,226.45,422.93,226.45Z" transform="translate(-84.53 -58.34)"/><path class="cls-4" d="M372.6,70c39.36-6.93,60.26,9.75,46.68,37.28s-56.47,55.45-95.82,62.38A96.88,96.88,0,0,1,308,171.21c9.32,2.53,21.34,2.84,35.57.32,44-7.76,92-39,107.15-69.76s-8.19-49.43-52.19-41.67a168.37,168.37,0,0,0-42.69,14.1A138.25,138.25,0,0,1,372.6,70Z" transform="translate(-84.53 -58.34)"/><path class="cls-5" d="M308.05,112c26.36-17.15,58.12-22.75,71-12.51s1.88,32.47-24.48,49.62a120.79,120.79,0,0,1-11.42,6.55,133.4,133.4,0,0,0,29.58-14.38c29.45-19.18,41.71-44,27.36-55.49s-49.86-5.2-79.33,14a102.69,102.69,0,0,0-22.85,19.76A105,105,0,0,1,308.05,112Z" transform="translate(-84.53 -58.34)"/><path class="cls-6" d="M285.73,149.18c6.7-13.57,27.87-27.36,47.3-30.78s29.72,4.82,23,18.39a35.71,35.71,0,0,1-3.69,5.73c5.19-4.55,9.33-9.49,11.76-14.4,7.48-15.18-4.06-24.39-25.75-20.57S293,126.79,285.5,142c-2.42,4.93-2.81,9.19-1.57,12.61A20,20,0,0,1,285.73,149.18Z" transform="translate(-84.53 -58.34)"/><path class="cls-7" d="M302.51,162.64c-5.5-4.39-.8-13.92,10.51-21.28s24.91-9.75,30.41-5.35a5.86,5.86,0,0,1,1.72,2.15,6.79,6.79,0,0,0-2.5-6.31c-6.16-4.9-21.4-2.21-34,6s-17.9,18.89-11.73,23.8c2,1.6,4.94,2.37,8.43,2.44A8.87,8.87,0,0,1,302.51,162.64Z" transform="translate(-84.53 -58.34)"/></svg>